Coordinates
version=1
nRows=29
nColumns=24
inDegrees=yes

Units are S.I. units (second, meters, Newtons, ...)
Angles are in degrees.

endheader
time	pelvis_tilt	pelvis_list	pelvis_rotation	pelvis_tx	pelvis_ty	pelvis_tz	hip_flexion_r	hip_adduction_r	hip_rotation_r	knee_angle_r	ankle_angle_r	subtalar_angle_r	mtp_angle_r	hip_flexion_l	hip_adduction_l	hip_rotation_l	knee_angle_l	ankle_angle_l	subtalar_angle_l	mtp_angle_l	lumbar_extension	lumbar_bending	lumbar_rotation
      0.72100000	      3.19157132	      5.08268136	     -0.44812493	     -0.47911763	      1.02181562	      0.28572700	      8.49471395	     -1.11983898	      2.96400765	    -18.54938238	      8.45202700	    -10.45277909	     -0.22930624	     14.64735516	      3.46312238	     -7.50477180	    -65.36171026	     -0.05822111	    -18.13436643	      1.19861918	    -11.74713108	     -5.86502025	      3.74697206
      0.72516667	      3.17020773	      5.20204602	     -0.60235128	     -0.47389943	      1.02264434	      0.28588976	      8.07151004	     -1.25608727	      3.04575312	    -18.27345340	      8.62586054	    -10.29126014	     -0.22645791	     15.11904261	      3.60509881	     -7.55367887	    -64.77701507	      0.23687437	    -18.03452102	      0.96143569	    -11.73361693	     -5.99069977	      4.13384404
      0.72933333	      3.15216138	      5.33214532	     -0.74972109	     -0.46869761	      1.02344961	      0.28599704	      7.64619655	     -1.41099434	      3.11460438	    -17.99412189	      8.68880847	    -10.20062442	     -0.22424600	     15.57228800	      3.77133828	     -7.58312557	    -64.12866602	      0.55057285	    -17.96103850	      0.87302394	    -11.72150559	     -6.12815921	      4.22673016
      0.73350000	      3.14153652	      5.45845075	     -0.90589054	     -0.46349132	      1.02422483	      0.28611434	      7.21324884	     -1.56412203	      3.18043015	    -17.71376760	      8.80576660	    -10.07450612	     -0.21878545	     16.00133693	      3.92060599	     -7.62817309	    -63.42632243	      0.84950326	    -17.78241043	      0.77283778	    -11.71853206	     -6.26653716	      4.40933536
      0.73766667	      3.11553208	      5.57331507	     -1.05763093	     -0.45828554	      1.02493606	      0.28620977	      6.79350414	     -1.70901638	      3.23590013	    -17.42385928	      8.91013299	     -9.93752923	     -0.21230326	     16.43521782	      4.05450411	     -7.66761898	    -62.67771501	      1.13852618	    -17.56847946	      0.68777270	    -11.70169723	     -6.39827390	      4.59659832
      0.74183333	      3.09366370	      5.68641972	     -1.21741804	     -0.45307641	      1.02560885	      0.28629738	      6.37390527	     -1.85460708	      3.29139340	    -17.14261534	      9.03880892	     -9.78808050	     -0.20289658	     16.84659554	      4.18164242	     -7.71426333	    -61.87417273	      1.41577796	    -17.30522916	      0.59391134	    -11.68221648	     -6.51667332	      4.81643892
      0.74600000	      3.07387279	      5.77141169	     -1.37121608	     -0.44786983	      1.02622270	      0.28637681	      5.94263207	     -1.97193042	      3.33866294	    -16.84343637	      9.19458340	     -9.62336987	     -0.18832752	     17.24666127	      4.26870402	     -7.75935104	    -61.04323045	      1.69715787	    -16.99727646	      0.46566511	    -11.67132788	     -6.61079555	      5.08309194
      0.75016667	      3.02814639	      5.87942380	     -1.53035838	     -0.44267406	      1.02676289	      0.28642356	      5.55283708	     -2.11826248	      3.38615965	    -16.56310322	      9.26908867	     -9.49359318	     -0.17922313	     17.65429448	      4.38741802	     -7.80174968	    -60.14199471	      1.92749563	    -16.71001646	      0.39958370	    -11.62587370	     -6.72629363	      5.22879921
      0.75433333	      2.99386519	      5.97005363	     -1.68779929	     -0.43746825	      1.02727856	      0.28648231	      5.13828850	     -2.24576769	      3.43545393	    -16.25981223	      9.37902284	     -9.34871447	     -0.16860161	     18.03461263	      4.47418193	     -7.85302946	    -59.20498747	      2.15650262	    -16.36620748	      0.34199256	    -11.60144226	     -6.83564285	      5.41634308
      0.75850000	      2.98337495	      6.02682068	     -1.84728475	     -0.43226424	      1.02775913	      0.28652726	      4.69570175	     -2.33944970	      3.47942675	    -15.95629888	      9.53858153	     -9.18760497	     -0.15080108	     18.37411906	      4.51839856	     -7.90374885	    -58.23918802	      2.40774869	    -15.97767508	      0.24698938	    -11.59390850	     -6.87988949	      5.70328795
      0.76266667	      2.96039764	      6.10273589	     -2.00962712	     -0.42706884	      1.02818901	      0.28655861	      4.27197008	     -2.45633762	      3.52534809	    -15.65742708	      9.65588377	     -9.04552472	     -0.13345522	     18.70653202	      4.58418835	     -7.95929932	    -57.21128548	      2.59894971	    -15.61759013	      0.15917411	    -11.57761602	     -6.95841440	      5.92285702
      0.76683333	      2.93731816	      6.16091325	     -2.16533008	     -0.42187175	      1.02856688	      0.28657738	      3.84186190	     -2.55525556	      3.56891055	    -15.34793394	      9.76638393	     -8.91343077	     -0.11648077	     19.02335187	      4.62782670	     -8.00789396	    -56.14822756	      2.77279145	    -15.25145075	      0.08246755	    -11.55920981	     -7.01615627	      6.12972546
      0.77100000	      2.88002768	      6.22539121	     -2.31849123	     -0.41667136	      1.02884855	      0.28658358	      3.45551358	     -2.66133061	      3.61005955	    -15.05029971	      9.84101264	     -8.80017762	     -0.10684531	     19.35845983	      4.67772265	     -8.05494954	    -55.03563916	      2.88566303	    -14.91182520	      0.04692476	    -11.49952929	     -7.08152291	      6.27094165
      0.77516667	      2.84971876	      6.25214110	     -2.47227444	     -0.41147671	      1.02910066	      0.28659355	      3.02767549	     -2.72625981	      3.66577878	    -14.73185314	      9.98970264	     -8.67440999	     -0.08960607	     19.65097684	      4.67445511	     -8.11366621	    -53.90996635	      3.04669691	    -14.52339313	     -0.01458208	    -11.47621076	     -7.09962419	      6.54807251
      0.77933333	      2.82845932	      6.28317615	     -2.62149352	     -0.40628390	      1.02933209	      0.28658608	      2.58850506	     -2.79869542	      3.71280069	    -14.40993590	     10.09376243	     -8.57423341	     -0.07458050	     19.91259895	      4.68128639	     -8.16447939	    -52.73065159	      3.14210309	    -14.17794907	     -0.06890106	    -11.46589151	     -7.12654788	      6.76046245
      0.78350000	      2.77116856	      6.32515722	     -2.76517149	     -0.40107877	      1.02948498	      0.28656567	      2.19551356	     -2.88343223	      3.75393082	    -14.10190791	     10.17234873	     -8.48184678	     -0.06553960	     20.18926132	      4.70051261	     -8.21058829	    -51.49607077	      3.17616994	    -13.86726384	     -0.09679397	    -11.40614797	     -7.16593176	      6.90621286
      0.78766667	      2.73593818	      6.33487425	     -2.90609765	     -0.39589375	      1.02957525	      0.28655018	      1.76993930	     -2.93194719	      3.81163887	    -13.78043945	     10.31159208	     -8.39141986	     -0.05092569	     20.43308492	      4.67600919	     -8.26601407	    -50.25708236	      3.24774234	    -13.54045481	     -0.13921868	    -11.38664870	     -7.16406576	      7.17039044
      0.79183333	      2.68179695	      6.34928155	     -3.03108129	     -0.39070227	      1.02962718	      0.28650022	      1.36772840	     -2.98770494	      3.84315050	    -13.46555172	     10.38809967	     -8.32020256	     -0.04350797	     20.67311810	      4.66434094	     -8.30281053	    -48.96067719	      3.23647115	    -13.25255229	     -0.16037057	    -11.33354340	     -7.17109067	      7.30663611
      0.79600000	      2.63843648	      6.36425271	     -3.16099137	     -0.38551027	      1.02963793	      0.28645946	      0.95446603	     -3.04436061	      3.88996477	    -13.15246800	     10.49972289	     -8.25108903	     -0.03555318	     20.87987981	      4.64995063	     -8.35086134	    -47.62598476	      3.22273803	    -12.97913116	     -0.18038940	    -11.29729945	     -7.17862553	      7.49081826
      0.80016667	      2.58400473	      6.36213146	     -3.27015187	     -0.38030998	      1.02960151	      0.28640093	      0.54162642	     -3.08107192	      3.92698791	    -12.82284611	     10.59992524	     -8.19156385	     -0.02947530	     21.08111906	      4.61929462	     -8.38514975	    -46.26203567	      3.18075912	    -12.73029384	     -0.19585488	    -11.25407001	     -7.16560558	      7.65988049
      0.80433333	      2.53059618	      6.35449329	     -3.37831697	     -0.37512229	      1.02951160	      0.28633295	      0.13497606	     -3.11251206	      3.96871318	    -12.50703982	     10.70488481	     -8.14797499	     -0.02430024	     21.26074607	      4.58188568	     -8.42381166	    -44.86122110	      3.12326003	    -12.49727714	     -0.20993695	    -11.20974145	     -7.14528047	      7.84155743
      0.80850000	      2.47304746	      6.34269751	     -3.47247870	     -0.36992249	      1.02938688	      0.28624771	     -0.27266683	     -3.13900858	      4.00453764	    -12.18571018	     10.80691951	     -8.11122459	     -0.02062867	     21.42298283	      4.54428523	     -8.45510447	    -43.42243769	      3.03977402	    -12.29174562	     -0.22170798	    -11.16418458	     -7.11947479	      8.01164934
      0.81266667	      2.40312456	      6.32943608	     -3.55533672	     -0.36471945	      1.02919205	      0.28615726	     -0.66516611	     -3.16220477	      4.03213199	    -11.87154177	     10.91149980	     -8.08377028	     -0.01828194	     21.57915006	      4.50384490	     -8.49044744	    -41.95036801	      2.93575246	    -12.09903681	     -0.23100461	    -11.11002077	     -7.09141221	      8.16897905
      0.81683333	      2.34937224	      6.31456943	     -3.63177538	     -0.35951778	      1.02899079	      0.28605895	     -1.07336780	     -3.18440916	      4.05708014	    -11.56397233	     11.01874224	     -8.05983518	     -0.01790964	     21.69170805	      4.46689011	     -8.52139866	    -40.43241812	      2.81157119	    -11.93326980	     -0.23886397	    -11.06976089	     -7.06377953	      8.32687677
      0.82100000	      2.27716172	      6.28876190	     -3.69138161	     -0.35429928	      1.02872852	      0.28593450	     -1.46581133	     -3.19263079	      4.07408255	    -11.25497392	     11.12294738	     -8.04619808	     -0.01950033	     21.80421066	      4.42143295	     -8.54898462	    -38.88567764	      2.67098399	    -11.78242800	     -0.24464420	    -11.01428316	     -7.02163405	      8.46703258
      0.82516667	      2.20689404	      6.26807655	     -3.74154655	     -0.34907496	      1.02842719	      0.28580851	     -1.85661545	     -3.20569296	      4.08220576	    -10.95686708	     11.23280656	     -8.03634533	     -0.02318918	     21.88950075	      4.38338987	     -8.58044458	    -37.29762257	      2.51413764	    -11.64873133	     -0.24860503	    -10.95918806	     -6.98487145	      8.59272656
      0.82933333	      2.11566563	      6.24231249	     -3.77228631	     -0.34383467	      1.02805223	      0.28564753	     -2.22720121	     -3.21146672	      4.07209431	    -10.66050536	     11.34890833	     -8.02922166	     -0.02778915	     21.98044982	      4.33992451	     -8.62754180	    -35.68757620	      2.35415779	    -11.50801441	     -0.25100498	    -10.89164085	     -6.92729515	      8.69056563
      0.83350000	      2.08592512	      6.21197563	     -3.81108043	     -0.33860309	      1.02775051	      0.28549544	     -2.66237272	     -3.21503166	      4.08589709	    -10.36982759	     11.47115344	     -8.03286010	     -0.04193695	     21.96733331	      4.31059818	     -8.64594590	    -34.01107724	      2.16005863	    -11.46944497	     -0.24950373	    -10.89090041	     -6.88615682	      8.83734471
      0.83766667	      1.98681551	      6.17513543	     -3.82390083	     -0.33333886	      1.02729191	      0.28532342	     -3.01124430	     -3.20455366	      4.05166286	    -10.11206845	     11.57507787	     -8.04064457	     -0.05170997	     22.02106468	      4.25714098	     -8.71442276	    -32.33903631	      1.97550516	    -11.30803143	     -0.24870339	    -10.79695765	     -6.83492391	      8.89376080
